#!OML:ASF F:\VICON\USERDATA\INSTALL\rory3\rory3.ASF
:FULLY-SPECIFIED
:DEGREES
10
root 0.3321573978778272 18.008496563859627 -23.348008878780703 3.446897407905066 -3.5313334359762254 -4.1253199869631185
lfemur -45.406613562527326 5.974828777042531 -19.02344873393112
ltibia 78.39175829946863
lfoot 0.25906118113528376 -9.115042488422368
ltoes -5.011921766970188
rfemur 5.8839206724614215 5.190660111518785 30.71360412074126
rtibia 34.71752720448392
rfoot 3.2704610041816973 -1.7272107024033416
rtoes -19.267522224319936
lowerback 12.584571860541596 2.1646632966317743 6.2181108039047555
upperback -0.8755614932171097 4.052703185668582 1.401193901693589
thorax -7.6060174400737175 1.7155145941494858 -3.0522797983582235
lowerneck -18.227361994840866 -4.793798787812732 -2.690224731033448
upperneck 13.700431684391868 -6.564964339753546 4.3950350380999375
head 7.3721310838102125 -2.8679624213249584 1.007748135161676
lclavicle 2.98015211221034e-15 1.1900931974108452e-16
lhumerus -63.665841385216716 -9.621164265584556 97.68299458458304
lradius 109.47698101541862
lwrist 33.78987298599042
lhand -20.60962857708187 2.5511735290570816
lfingers 7.125019999999999
lthumb 5.751043337155545 32.45177677218855
rclavicle 2.98015211221034e-15 1.1900931974108452e-16
rhumerus -33.47302292718557 14.41461092601051 -95.97944772192422
rradius 117.75673814465176
rwrist -16.15554811666097
rhand -16.91743390370095 42.59763622359777
rfingers 7.125019999999999
rthumb 9.31485053146901 12.797586000344145
11
root 0.34757661287947933 18.190440135639122 -22.193721693250186 2.4621528760916616 -1.547265217550618 -3.7503241733812622
lfemur -43.637153607658874 2.5269066597148355 -19.459737565265282
ltibia 69.06052287373801
lfoot -0.7563799782565699 -8.939054394812958
ltoes -9.14532946955286
rfemur 10.969493836149251 4.261840648769535 30.297314407460398
rtibia 30.141060720570184
rfoot 12.891696209220337 -3.0099762808898074
rtoes -18.398060582716724
lowerback 14.635356124234114 1.876152821031011 6.143400185416392
upperback -1.8273517558793917 3.8214151803265293 1.3518146194936809
thorax -9.993504281824052 1.5192179795494212 -3.1509324721996825
lowerneck -18.2866104017786 -5.036046266966564 -2.608340764544964
upperneck 14.860781110556063 -6.910410279472017 4.228391915630879
head 7.808727591402432 -3.0323261373402555 0.8238205585232717
lclavicle 2.9801521125008746e-15 1.1900928798040972e-16
lhumerus -66.49474630560206 -7.840609513025036 97.21461408925082
lradius 110.04389378169428
lwrist 33.70736409508469
lhand -20.495938093872105 2.445218895551771
lfingers 7.125019999999999
lthumb 5.860856912220319 32.34469541410108
rclavicle 2.9801521125008746e-15 1.1900928798040972e-16
rhumerus -33.89655666695134 14.145531354818432 -95.33701910468518
rradius 118.1123906638785
rwrist -15.773089309555703
rhand -15.979594115723593 41.04707684319522
rfingers 7.125019999999999
rthumb 10.219828703004092 11.2879463453801
12
root 0.3965636829970133 18.376860175833095 -20.81273723482059 1.5807801555649588 -4.066232264418575 -3.1965792580319485
lfemur -39.52673448381125 2.9677250409774834 -20.43266586230842
ltibia 59.04850771476066
lfoot -1.7597337142670415 -7.80488124462576
ltoes -10.020612771616952
rfemur 15.855467158173777 6.840944300516975 28.910069907531216
rtibia 27.178906793932505
rfoot 20.14393550506602 -1.2775549467757612
rtoes -15.891986528831511
lowerback 11.524601424848012 3.319728499282106 6.390086806317258
upperback -1.0469963730531329 5.475847967506295 0.905820725025283
thorax -6.985819127805917 2.402240976578036 -4.135093267128258
lowerneck -18.356643058224737 -5.288175101763823 -2.568327245753251
upperneck 15.22827225372755 -7.299004576834472 4.517555426471434
head 7.980036514844498 -3.1953407667671874 0.8313181479646858
lclavicle 2.980151982483492e-15 1.1900929242689046e-16
lhumerus -68.23246594298969 -6.108421183001512 96.47047680343475
lradius 110.80349228306025
lwrist 33.96494437215591
lhand -20.296239802537343 2.350554337686355
lfingers 7.125019999999999
lthumb 6.053781673276364 32.24921778136272
rclavicle 2.980151982483492e-15 1.1900929242689046e-16
rhumerus -33.80943882466869 14.291859202729556 -94.78206551593571
rradius 118.31140865391214
rwrist -15.538359972518476
rhand -16.237943090292383 40.44670550466829
rfingers 7.125019999999999
rthumb 9.9705532785094 10.688258104543857
13
root 0.3838976567594168 18.44510144988489 -19.797614933165793 1.8029125847849627 -0.9405593013982629 -3.0919987522521493
lfemur -38.582688743343326 -0.2746113307540572 -20.063837876281703
ltibia 48.883334475041245
lfoot -1.0148810924087155 -9.837166193600448
ltoes -10.467201100353249
rfemur 17.129447924980465 7.080669937009416 31.08480305445641
rtibia 27.999112592056974
rfoot 22.5534711808299 -2.559193644812613
rtoes -1.8395396017953103
lowerback 12.863266526316645 2.495839373130887 5.54318858102417
upperback -1.820589999725541 4.373293764895182 1.0232772676476793
thorax -8.89992392585694 1.8387514558777225 -3.3298121387944786
lowerneck -18.360800841167734 -5.462337121990558 -2.5699390977469805
upperneck 15.71743160318937 -7.630805712043257 5.100376220711998
head 8.194563817495657 -3.3064238902372223 0.9735306009703312
lclavicle 2.9801522261026237e-15 1.1900931720019732e-16
lhumerus -69.98228492537348 -4.53932655875267 95.81930325091277
lradius 111.75145603048574
lwrist 33.95211735970419
lhand -20.504092005506088 2.3764254598384094
lfingers 7.125019999999999
lthumb 5.8529942196116105 32.27477712807131
rclavicle 2.9801522261026237e-15 1.1900931720019732e-16
rhumerus -34.056007339118736 14.57081087018549 -94.49612474120666
rradius 118.16767343888785
rwrist -15.562601084972613
rhand -16.922993531936456 40.705784554097825
rfingers 7.125019999999999
rthumb 9.309509659602224 10.92820826832415
14
root 0.3798001242831958 18.455148634548497 -18.733816598531728 3.13767975980659 0.5591697226961359 -3.6763919175196573
lfemur -38.2021971698275 -1.7438749124522257 -18.987826885708017
ltibia 39.336050927642056
lfoot 0.26739897991480965 -11.644010477635597
ltoes -9.490948149912802
rfemur 15.840327924846253 8.182876886504552 33.551414150828464
rtibia 32.00862095268074
rfoot 21.673690477235414 -3.001560209784074
rtoes 7.17333050447753
lowerback 12.349827188441655 2.2150819017565784 5.71944465239672
upperback -2.609112966039573 4.0751585608239065 1.2341025161266523
thorax -9.600433583442433 1.6650668936157689 -3.047213333519477
lowerneck -18.427975021840567 -5.670320896217091 -2.632094372873614
upperneck 15.93255882629185 -7.932506628327908 5.340832670284767
head 8.313604078980749 -3.435511490275376 1.0049257693928764
lclavicle 2.9801520525041334e-15 1.19009304495921e-16
lhumerus -71.31574983438233 -3.1798201429724777 95.34750339987318
lradius 112.68585263478671
lwrist 33.47208664146558
lhand -19.996837452930823 2.204930793331361
lfingers 7.125019999999999
lthumb 6.343007207357867 32.10171807793168
rclavicle 2.9801520525041334e-15 1.19009304495921e-16
rhumerus -34.85295741765026 14.796115488207535 -94.62938031368174
rradius 117.82814506237216
rwrist -15.88081550884741
rhand -16.29762222463292 41.08388968399889
rfingers 7.125019999999999
rthumb 9.91299344317109 11.316333585244898
